# xmcd
#
# Track frame offsets:
# 150
# 27870
# 61339
# 96360
# 132812
# 161767
# 191162
# 237967
# 269637
# 287442
#
# Disc length: 4433 seconds
#
#
# Revision: 2
# Processed by: cddbd v1.4PL0 Copyright (c) Steve Scherf et al.
# Submitted via: FreeRIP 2.00 
#
DISCID=8f114f0a
DTITLE=Anastacia - Freak of Nature
DYEAR=2002
DGENRE=R&B
TTITLE0=Freak of Nature
TTITLE1=Paid My Dues
TTITLE2=Overdue Goodbye
TTITLE3=You'll Never Be Alone
TTITLE4=One Day in Your Life
TTITLE5=How Come the World Won't Stop
TTITLE6=I Thought I Told You (featuring Faith Evans)
TTITLE7=Why'd You Lie to Me
TTITLE8=Don'tcha Wanna
TTITLE9=Secrets
EXTD=
EXTT0=
EXTT1=
EXTT2=
EXTT3=
EXTT4=
EXTT5=
EXTT6=
EXTT7=
EXTT8=
EXTT9=
PLAYORDER=
